# xmcd
#
# Track frame offsets:
#	150
#	12447
#	25947
#	39677
#	53220
#	66327
#	80695
#	94510
#	109870
#	122920
#	135652
#	148190
#	162522
#	176457
#	187960
#	199652
#	212682
#	225117
#	237897
#	251700
#	264837
#	278887
#	291385
#	304112
#
# Disc length: 4220 seconds
# Revision: 3
# Processed by: cddbd v1.5.2PL0 Copyright (c) Steve Scherf et al.
# Submitted via: dBpowerAMP V12.0
#
DISCID=5c107a18
DTITLE=Little Walter - The Chess Years 1952-1963  [Disc 1]
DYEAR=1900
DGENRE=Blues
TTITLE0=Juke
TTITLE1=Can't Hold Out Much Longer
TTITLE2=Blue Midnight
TTITLE3=Boogie
TTITLE4=Mean Old World
TTITLE5=Sad Hours
TTITLE6=Don't Have to Hurt No More
TTITLE7=Crazy Legs
TTITLE8=Toonight With a Fool
TTITLE9=Off the Wall
TTITLE10=Tell Me Mama
TTITLE11=Quarter to Twelve
TTITLE12=Blues With a Feeling
TTITLE13=Last Boogie
TTITLE14=Too Late
TTITLE15=Fast Boogie
TTITLE16=Light Out
TTITLE17=Fast Large One
TTITLE18=You Are So Fine
TTITLE19=Come Back Baby
TTITLE20=Rocker
TTITLE21=Oh Baby
TTITLE22=I Got to Find My Baby
TTITLE23=Big Leg Mama
EXTD=
EXTT0=
EXTT1=
EXTT2=
EXTT3=
EXTT4=
EXTT5=
EXTT6=
EXTT7=
EXTT8=
EXTT9=
EXTT10=
EXTT11=
EXTT12=
EXTT13=
EXTT14=
EXTT15=
EXTT16=
EXTT17=
EXTT18=
EXTT19=
EXTT20=
EXTT21=
EXTT22=
EXTT23=
PLAYORDER=
